<svg xmlns="http://www.w3.org/2000/svg" xmlns:xlink="http://www.w3.org/1999/xlink" width="500" zoomAndPan="magnify" viewBox="0 0 375 374.999991" height="500" preserveAspectRatio="xMidYMid meet" version="1.0"><defs><clipPath id="be3e8aa6ae"><path d="M 272 262 L 289 262 L 289 278.992188 L 272 278.992188 Z M 272 262 " clip-rule="nonzero"/></clipPath><clipPath id="a95d46deaa"><path d="M 142 262 L 159 262 L 159 278.992188 L 142 278.992188 Z M 142 262 " clip-rule="nonzero"/></clipPath><clipPath id="5dc16ef939"><path d="M 346 95.992188 L 362.617188 95.992188 L 362.617188 113 L 346 113 Z M 346 95.992188 " clip-rule="nonzero"/></clipPath><clipPath id="71864faff7"><path d="M 216 95.992188 L 233 95.992188 L 233 113 L 216 113 Z M 216 95.992188 " clip-rule="nonzero"/></clipPath><clipPath id="2c837b6b5d"><path d="M 86 95.992188 L 103 95.992188 L 103 113 L 86 113 Z M 86 95.992188 " clip-rule="nonzero"/></clipPath><clipPath id="7e65bdb1ff"><path d="M 253 262 L 270 262 L 270 278.992188 L 253 278.992188 Z M 253 262 " clip-rule="nonzero"/></clipPath><clipPath id="aec39bdd83"><path d="M 235 262 L 252 262 L 252 278.992188 L 235 278.992188 Z M 235 262 " clip-rule="nonzero"/></clipPath><clipPath id="1315aa4558"><path d="M 216 262 L 233 262 L 233 278.992188 L 216 278.992188 Z M 216 262 " clip-rule="nonzero"/></clipPath><clipPath id="d055fae744"><path d="M 123 262 L 140 262 L 140 278.992188 L 123 278.992188 Z M 123 262 " clip-rule="nonzero"/></clipPath><clipPath id="e46a799520"><path d="M 105 262 L 122 262 L 122 278.992188 L 105 278.992188 Z M 105 262 " clip-rule="nonzero"/></clipPath><clipPath id="3ec51dd03b"><path d="M 327 95.992188 L 344 95.992188 L 344 113 L 327 113 Z M 327 95.992188 " clip-rule="nonzero"/></clipPath><clipPath id="55f7a51888"><path d="M 309 95.992188 L 326 95.992188 L 326 113 L 309 113 Z M 309 95.992188 " clip-rule="nonzero"/></clipPath><clipPath id="6e8b3df017"><path d="M 198 95.992188 L 215 95.992188 L 215 113 L 198 113 Z M 198 95.992188 " clip-rule="nonzero"/></clipPath><clipPath id="1c9bb2dbd4"><path d="M 179 95.992188 L 196 95.992188 L 196 113 L 179 113 Z M 179 95.992188 " clip-rule="nonzero"/></clipPath><clipPath id="23c7d5f1f1"><path d="M 160 95.992188 L 177 95.992188 L 177 113 L 160 113 Z M 160 95.992188 " clip-rule="nonzero"/></clipPath><clipPath id="01e73181c7"><path d="M 68 95.992188 L 85 95.992188 L 85 113 L 68 113 Z M 68 95.992188 " clip-rule="nonzero"/></clipPath><clipPath id="e17ae75d24"><path d="M 49 95.992188 L 66 95.992188 L 66 113 L 49 113 Z M 49 95.992188 " clip-rule="nonzero"/></clipPath><clipPath id="a1a0aeecbf"><path d="M 198 262 L 215 262 L 215 278.992188 L 198 278.992188 Z M 198 262 " clip-rule="nonzero"/></clipPath><clipPath id="d2353f8f5b"><path d="M 86 262 L 103 262 L 103 278.992188 L 86 278.992188 Z M 86 262 " clip-rule="nonzero"/></clipPath><clipPath id="5db046c4c3"><path d="M 290 95.992188 L 307 95.992188 L 307 113 L 290 113 Z M 290 95.992188 " clip-rule="nonzero"/></clipPath><clipPath id="01fa4e7009"><path d="M 142 95.992188 L 159 95.992188 L 159 113 L 142 113 Z M 142 95.992188 " clip-rule="nonzero"/></clipPath><clipPath id="10e91f55b1"><path d="M 31 95.992188 L 48 95.992188 L 48 113 L 31 113 Z M 31 95.992188 " clip-rule="nonzero"/></clipPath><clipPath id="82be407153"><path d="M 12.367188 95.992188 L 29 95.992188 L 29 113 L 12.367188 113 Z M 12.367188 95.992188 " clip-rule="nonzero"/></clipPath></defs><rect x="-37.5" width="450" fill="#ffffff" y="-37.499999" height="449.999989" fill-opacity="1"/><rect x="-37.5" width="450" fill="#222222" y="-37.499999" height="449.999989" fill-opacity="1"/><g clip-path="url(#be3e8aa6ae)"><path fill="#732f05" d="M 272.21875 262.980469 L 288.234375 262.980469 L 288.234375 279.003906 L 272.21875 279.003906 Z M 272.21875 262.980469 " fill-opacity="1" fill-rule="nonzero"/></g><g clip-path="url(#a95d46deaa)"><path fill="#732f05" d="M 142.402344 262.980469 L 158.417969 262.980469 L 158.417969 279.003906 L 142.402344 279.003906 Z M 142.402344 262.980469 " fill-opacity="1" fill-rule="nonzero"/></g><path fill="#732f05" d="M 290.765625 244.429688 L 306.777344 244.429688 L 306.777344 260.453125 L 290.765625 260.453125 Z M 290.765625 244.429688 " fill-opacity="1" fill-rule="nonzero"/><path fill="#732f05" d="M 160.949219 244.429688 L 176.960938 244.429688 L 176.960938 260.453125 L 160.949219 260.453125 Z M 160.949219 244.429688 " fill-opacity="1" fill-rule="nonzero"/><path fill="#732f05" d="M 290.765625 225.871094 L 306.777344 225.871094 L 306.777344 241.898438 L 290.765625 241.898438 Z M 290.765625 225.871094 " fill-opacity="1" fill-rule="nonzero"/><path fill="#732f05" d="M 160.949219 225.871094 L 176.960938 225.871094 L 176.960938 241.898438 L 160.949219 241.898438 Z M 160.949219 225.871094 " fill-opacity="1" fill-rule="nonzero"/><path fill="#732f05" d="M 309.316406 207.320312 L 325.328125 207.320312 L 325.328125 223.347656 L 309.316406 223.347656 Z M 309.316406 207.320312 " fill-opacity="1" fill-rule="nonzero"/><path fill="#732f05" d="M 160.949219 207.320312 L 176.960938 207.320312 L 176.960938 223.347656 L 160.949219 223.347656 Z M 160.949219 207.320312 " fill-opacity="1" fill-rule="nonzero"/><path fill="#732f05" d="M 309.316406 188.761719 L 325.328125 188.761719 L 325.328125 204.789062 L 309.316406 204.789062 Z M 309.316406 188.761719 " fill-opacity="1" fill-rule="nonzero"/><path fill="#732f05" d="M 309.316406 170.210938 L 325.328125 170.210938 L 325.328125 186.238281 L 309.316406 186.238281 Z M 309.316406 170.210938 " fill-opacity="1" fill-rule="nonzero"/><path fill="#732f05" d="M 309.316406 151.652344 L 325.328125 151.652344 L 325.328125 167.679688 L 309.316406 167.679688 Z M 309.316406 151.652344 " fill-opacity="1" fill-rule="nonzero"/><path fill="#732f05" d="M 105.304688 151.652344 L 121.320312 151.652344 L 121.320312 167.679688 L 105.304688 167.679688 Z M 105.304688 151.652344 " fill-opacity="1" fill-rule="nonzero"/><path fill="#732f05" d="M 327.859375 133.101562 L 343.875 133.101562 L 343.875 149.128906 L 327.859375 149.128906 Z M 327.859375 133.101562 " fill-opacity="1" fill-rule="nonzero"/><path fill="#732f05" d="M 216.582031 133.101562 L 232.597656 133.101562 L 232.597656 149.128906 L 216.582031 149.128906 Z M 216.582031 133.101562 " fill-opacity="1" fill-rule="nonzero"/><path fill="#732f05" d="M 105.304688 133.101562 L 121.320312 133.101562 L 121.320312 149.128906 L 105.304688 149.128906 Z M 105.304688 133.101562 " fill-opacity="1" fill-rule="nonzero"/><path fill="#732f05" d="M 327.859375 114.546875 L 343.875 114.546875 L 343.875 130.570312 L 327.859375 130.570312 Z M 327.859375 114.546875 " fill-opacity="1" fill-rule="nonzero"/><path fill="#732f05" d="M 216.582031 114.546875 L 232.597656 114.546875 L 232.597656 130.570312 L 216.582031 130.570312 Z M 216.582031 114.546875 " fill-opacity="1" fill-rule="nonzero"/><path fill="#732f05" d="M 86.761719 114.546875 L 102.773438 114.546875 L 102.773438 130.570312 L 86.761719 130.570312 Z M 86.761719 114.546875 " fill-opacity="1" fill-rule="nonzero"/><g clip-path="url(#5dc16ef939)"><path fill="#732f05" d="M 346.40625 95.992188 L 362.417969 95.992188 L 362.417969 112.019531 L 346.40625 112.019531 Z M 346.40625 95.992188 " fill-opacity="1" fill-rule="nonzero"/></g><g clip-path="url(#71864faff7)"><path fill="#732f05" d="M 216.582031 95.992188 L 232.597656 95.992188 L 232.597656 112.019531 L 216.582031 112.019531 Z M 216.582031 95.992188 " fill-opacity="1" fill-rule="nonzero"/></g><g clip-path="url(#2c837b6b5d)"><path fill="#732f05" d="M 86.761719 95.992188 L 102.773438 95.992188 L 102.773438 112.019531 L 86.761719 112.019531 Z M 86.761719 95.992188 " fill-opacity="1" fill-rule="nonzero"/></g><g clip-path="url(#7e65bdb1ff)"><path fill="#ff751f" d="M 253.675781 262.980469 L 269.6875 262.980469 L 269.6875 279.003906 L 253.675781 279.003906 Z M 253.675781 262.980469 " fill-opacity="1" fill-rule="nonzero"/></g><g clip-path="url(#aec39bdd83)"><path fill="#ff751f" d="M 235.128906 262.980469 L 251.140625 262.980469 L 251.140625 279.003906 L 235.128906 279.003906 Z M 235.128906 262.980469 " fill-opacity="1" fill-rule="nonzero"/></g><g clip-path="url(#1315aa4558)"><path fill="#ff751f" d="M 216.582031 262.980469 L 232.597656 262.980469 L 232.597656 279.003906 L 216.582031 279.003906 Z M 216.582031 262.980469 " fill-opacity="1" fill-rule="nonzero"/></g><g clip-path="url(#d055fae744)"><path fill="#ff751f" d="M 123.859375 262.980469 L 139.871094 262.980469 L 139.871094 279.003906 L 123.859375 279.003906 Z M 123.859375 262.980469 " fill-opacity="1" fill-rule="nonzero"/></g><g clip-path="url(#e46a799520)"><path fill="#ff751f" d="M 105.304688 262.980469 L 121.320312 262.980469 L 121.320312 279.003906 L 105.304688 279.003906 Z M 105.304688 262.980469 " fill-opacity="1" fill-rule="nonzero"/></g><path fill="#ff751f" d="M 272.21875 244.429688 L 288.234375 244.429688 L 288.234375 260.453125 L 272.21875 260.453125 Z M 272.21875 244.429688 " fill-opacity="1" fill-rule="nonzero"/><path fill="#ff751f" d="M 253.675781 244.429688 L 269.6875 244.429688 L 269.6875 260.453125 L 253.675781 260.453125 Z M 253.675781 244.429688 " fill-opacity="1" fill-rule="nonzero"/><path fill="#ff751f" d="M 235.128906 244.429688 L 251.140625 244.429688 L 251.140625 260.453125 L 235.128906 260.453125 Z M 235.128906 244.429688 " fill-opacity="1" fill-rule="nonzero"/><path fill="#ff751f" d="M 216.582031 244.429688 L 232.597656 244.429688 L 232.597656 260.453125 L 216.582031 260.453125 Z M 216.582031 244.429688 " fill-opacity="1" fill-rule="nonzero"/><path fill="#ff751f" d="M 142.402344 244.429688 L 158.417969 244.429688 L 158.417969 260.453125 L 142.402344 260.453125 Z M 142.402344 244.429688 " fill-opacity="1" fill-rule="nonzero"/><path fill="#ff751f" d="M 123.859375 244.429688 L 139.871094 244.429688 L 139.871094 260.453125 L 123.859375 260.453125 Z M 123.859375 244.429688 " fill-opacity="1" fill-rule="nonzero"/><path fill="#ff751f" d="M 105.304688 244.429688 L 121.320312 244.429688 L 121.320312 260.453125 L 105.304688 260.453125 Z M 105.304688 244.429688 " fill-opacity="1" fill-rule="nonzero"/><path fill="#ff751f" d="M 272.21875 225.871094 L 288.234375 225.871094 L 288.234375 241.898438 L 272.21875 241.898438 Z M 272.21875 225.871094 " fill-opacity="1" fill-rule="nonzero"/><path fill="#ff751f" d="M 253.675781 225.871094 L 269.6875 225.871094 L 269.6875 241.898438 L 253.675781 241.898438 Z M 253.675781 225.871094 " fill-opacity="1" fill-rule="nonzero"/><path fill="#ff751f" d="M 235.128906 225.871094 L 251.140625 225.871094 L 251.140625 241.898438 L 235.128906 241.898438 Z M 235.128906 225.871094 " fill-opacity="1" fill-rule="nonzero"/><path fill="#ff751f" d="M 216.582031 225.871094 L 232.597656 225.871094 L 232.597656 241.898438 L 216.582031 241.898438 Z M 216.582031 225.871094 " fill-opacity="1" fill-rule="nonzero"/><path fill="#ff751f" d="M 142.402344 225.871094 L 158.417969 225.871094 L 158.417969 241.898438 L 142.402344 241.898438 Z M 142.402344 225.871094 " fill-opacity="1" fill-rule="nonzero"/><path fill="#ff751f" d="M 123.859375 225.871094 L 139.871094 225.871094 L 139.871094 241.898438 L 123.859375 241.898438 Z M 123.859375 225.871094 " fill-opacity="1" fill-rule="nonzero"/><path fill="#ff751f" d="M 105.304688 225.871094 L 121.320312 225.871094 L 121.320312 241.898438 L 105.304688 241.898438 Z M 105.304688 225.871094 " fill-opacity="1" fill-rule="nonzero"/><path fill="#ff751f" d="M 86.761719 225.871094 L 102.773438 225.871094 L 102.773438 241.898438 L 86.761719 241.898438 Z M 86.761719 225.871094 " fill-opacity="1" fill-rule="nonzero"/><path fill="#ff751f" d="M 290.765625 207.320312 L 306.777344 207.320312 L 306.777344 223.347656 L 290.765625 223.347656 Z M 290.765625 207.320312 " fill-opacity="1" fill-rule="nonzero"/><path fill="#ff751f" d="M 272.21875 207.320312 L 288.234375 207.320312 L 288.234375 223.347656 L 272.21875 223.347656 Z M 272.21875 207.320312 " fill-opacity="1" fill-rule="nonzero"/><path fill="#ff751f" d="M 253.675781 207.320312 L 269.6875 207.320312 L 269.6875 223.347656 L 253.675781 223.347656 Z M 253.675781 207.320312 " fill-opacity="1" fill-rule="nonzero"/><path fill="#ff751f" d="M 235.128906 207.320312 L 251.140625 207.320312 L 251.140625 223.347656 L 235.128906 223.347656 Z M 235.128906 207.320312 " fill-opacity="1" fill-rule="nonzero"/><path fill="#ff751f" d="M 216.582031 207.320312 L 232.597656 207.320312 L 232.597656 223.347656 L 216.582031 223.347656 Z M 216.582031 207.320312 " fill-opacity="1" fill-rule="nonzero"/><path fill="#ff751f" d="M 142.402344 207.320312 L 158.417969 207.320312 L 158.417969 223.347656 L 142.402344 223.347656 Z M 142.402344 207.320312 " fill-opacity="1" fill-rule="nonzero"/><path fill="#ff751f" d="M 123.859375 207.320312 L 139.871094 207.320312 L 139.871094 223.347656 L 123.859375 223.347656 Z M 123.859375 207.320312 " fill-opacity="1" fill-rule="nonzero"/><path fill="#ff751f" d="M 105.304688 207.320312 L 121.320312 207.320312 L 121.320312 223.347656 L 105.304688 223.347656 Z M 105.304688 207.320312 " fill-opacity="1" fill-rule="nonzero"/><path fill="#ff751f" d="M 86.761719 207.320312 L 102.773438 207.320312 L 102.773438 223.347656 L 86.761719 223.347656 Z M 86.761719 207.320312 " fill-opacity="1" fill-rule="nonzero"/><path fill="#ff751f" d="M 68.214844 207.320312 L 84.230469 207.320312 L 84.230469 223.347656 L 68.214844 223.347656 Z M 68.214844 207.320312 " fill-opacity="1" fill-rule="nonzero"/><path fill="#ff751f" d="M 290.765625 188.761719 L 306.777344 188.761719 L 306.777344 204.789062 L 290.765625 204.789062 Z M 290.765625 188.761719 " fill-opacity="1" fill-rule="nonzero"/><path fill="#ff751f" d="M 272.21875 188.761719 L 288.234375 188.761719 L 288.234375 204.789062 L 272.21875 204.789062 Z M 272.21875 188.761719 " fill-opacity="1" fill-rule="nonzero"/><path fill="#ff751f" d="M 253.675781 188.761719 L 269.6875 188.761719 L 269.6875 204.789062 L 253.675781 204.789062 Z M 253.675781 188.761719 " fill-opacity="1" fill-rule="nonzero"/><path fill="#ff751f" d="M 235.128906 188.761719 L 251.140625 188.761719 L 251.140625 204.789062 L 235.128906 204.789062 Z M 235.128906 188.761719 " fill-opacity="1" fill-rule="nonzero"/><path fill="#ff751f" d="M 216.582031 188.761719 L 232.597656 188.761719 L 232.597656 204.789062 L 216.582031 204.789062 Z M 216.582031 188.761719 " fill-opacity="1" fill-rule="nonzero"/><path fill="#ff751f" d="M 198.039062 188.761719 L 214.050781 188.761719 L 214.050781 204.789062 L 198.039062 204.789062 Z M 198.039062 188.761719 " fill-opacity="1" fill-rule="nonzero"/><path fill="#ff751f" d="M 179.492188 188.761719 L 195.507812 188.761719 L 195.507812 204.789062 L 179.492188 204.789062 Z M 179.492188 188.761719 " fill-opacity="1" fill-rule="nonzero"/><path fill="#ff751f" d="M 160.949219 188.761719 L 176.960938 188.761719 L 176.960938 204.789062 L 160.949219 204.789062 Z M 160.949219 188.761719 " fill-opacity="1" fill-rule="nonzero"/><path fill="#ff751f" d="M 142.402344 188.761719 L 158.417969 188.761719 L 158.417969 204.789062 L 142.402344 204.789062 Z M 142.402344 188.761719 " fill-opacity="1" fill-rule="nonzero"/><path fill="#ff751f" d="M 123.859375 188.761719 L 139.871094 188.761719 L 139.871094 204.789062 L 123.859375 204.789062 Z M 123.859375 188.761719 " fill-opacity="1" fill-rule="nonzero"/><path fill="#ff751f" d="M 105.304688 188.761719 L 121.320312 188.761719 L 121.320312 204.789062 L 105.304688 204.789062 Z M 105.304688 188.761719 " fill-opacity="1" fill-rule="nonzero"/><path fill="#ff751f" d="M 86.761719 188.761719 L 102.773438 188.761719 L 102.773438 204.789062 L 86.761719 204.789062 Z M 86.761719 188.761719 " fill-opacity="1" fill-rule="nonzero"/><path fill="#ff751f" d="M 68.214844 188.761719 L 84.230469 188.761719 L 84.230469 204.789062 L 68.214844 204.789062 Z M 68.214844 188.761719 " fill-opacity="1" fill-rule="nonzero"/><path fill="#ff751f" d="M 290.765625 170.210938 L 306.777344 170.210938 L 306.777344 186.238281 L 290.765625 186.238281 Z M 290.765625 170.210938 " fill-opacity="1" fill-rule="nonzero"/><path fill="#ff751f" d="M 272.21875 170.210938 L 288.234375 170.210938 L 288.234375 186.238281 L 272.21875 186.238281 Z M 272.21875 170.210938 " fill-opacity="1" fill-rule="nonzero"/><path fill="#ff751f" d="M 253.675781 170.210938 L 269.6875 170.210938 L 269.6875 186.238281 L 253.675781 186.238281 Z M 253.675781 170.210938 " fill-opacity="1" fill-rule="nonzero"/><path fill="#ff751f" d="M 235.128906 170.210938 L 251.140625 170.210938 L 251.140625 186.238281 L 235.128906 186.238281 Z M 235.128906 170.210938 " fill-opacity="1" fill-rule="nonzero"/><path fill="#ff751f" d="M 216.582031 170.210938 L 232.597656 170.210938 L 232.597656 186.238281 L 216.582031 186.238281 Z M 216.582031 170.210938 " fill-opacity="1" fill-rule="nonzero"/><path fill="#ff751f" d="M 198.039062 170.210938 L 214.050781 170.210938 L 214.050781 186.238281 L 198.039062 186.238281 Z M 198.039062 170.210938 " fill-opacity="1" fill-rule="nonzero"/><path fill="#ff751f" d="M 179.492188 170.210938 L 195.507812 170.210938 L 195.507812 186.238281 L 179.492188 186.238281 Z M 179.492188 170.210938 " fill-opacity="1" fill-rule="nonzero"/><path fill="#ff751f" d="M 160.949219 170.210938 L 176.960938 170.210938 L 176.960938 186.238281 L 160.949219 186.238281 Z M 160.949219 170.210938 " fill-opacity="1" fill-rule="nonzero"/><path fill="#ff751f" d="M 142.402344 170.210938 L 158.417969 170.210938 L 158.417969 186.238281 L 142.402344 186.238281 Z M 142.402344 170.210938 " fill-opacity="1" fill-rule="nonzero"/><path fill="#ff751f" d="M 123.859375 170.210938 L 139.871094 170.210938 L 139.871094 186.238281 L 123.859375 186.238281 Z M 123.859375 170.210938 " fill-opacity="1" fill-rule="nonzero"/><path fill="#ff751f" d="M 105.304688 170.210938 L 121.320312 170.210938 L 121.320312 186.238281 L 105.304688 186.238281 Z M 105.304688 170.210938 " fill-opacity="1" fill-rule="nonzero"/><path fill="#ff751f" d="M 86.761719 170.210938 L 102.773438 170.210938 L 102.773438 186.238281 L 86.761719 186.238281 Z M 86.761719 170.210938 " fill-opacity="1" fill-rule="nonzero"/><path fill="#ff751f" d="M 68.214844 170.210938 L 84.230469 170.210938 L 84.230469 186.238281 L 68.214844 186.238281 Z M 68.214844 170.210938 " fill-opacity="1" fill-rule="nonzero"/><path fill="#ff751f" d="M 290.765625 151.652344 L 306.777344 151.652344 L 306.777344 167.679688 L 290.765625 167.679688 Z M 290.765625 151.652344 " fill-opacity="1" fill-rule="nonzero"/><path fill="#ff751f" d="M 272.21875 151.652344 L 288.234375 151.652344 L 288.234375 167.679688 L 272.21875 167.679688 Z M 272.21875 151.652344 " fill-opacity="1" fill-rule="nonzero"/><path fill="#ff751f" d="M 253.675781 151.652344 L 269.6875 151.652344 L 269.6875 167.679688 L 253.675781 167.679688 Z M 253.675781 151.652344 " fill-opacity="1" fill-rule="nonzero"/><path fill="#ff751f" d="M 235.128906 151.652344 L 251.140625 151.652344 L 251.140625 167.679688 L 235.128906 167.679688 Z M 235.128906 151.652344 " fill-opacity="1" fill-rule="nonzero"/><path fill="#ff751f" d="M 216.582031 151.652344 L 232.597656 151.652344 L 232.597656 167.679688 L 216.582031 167.679688 Z M 216.582031 151.652344 " fill-opacity="1" fill-rule="nonzero"/><path fill="#ff751f" d="M 198.039062 151.652344 L 214.050781 151.652344 L 214.050781 167.679688 L 198.039062 167.679688 Z M 198.039062 151.652344 " fill-opacity="1" fill-rule="nonzero"/><path fill="#ff751f" d="M 179.492188 151.652344 L 195.507812 151.652344 L 195.507812 167.679688 L 179.492188 167.679688 Z M 179.492188 151.652344 " fill-opacity="1" fill-rule="nonzero"/><path fill="#ff751f" d="M 160.949219 151.652344 L 176.960938 151.652344 L 176.960938 167.679688 L 160.949219 167.679688 Z M 160.949219 151.652344 " fill-opacity="1" fill-rule="nonzero"/><path fill="#ff751f" d="M 86.761719 151.652344 L 102.773438 151.652344 L 102.773438 167.679688 L 86.761719 167.679688 Z M 86.761719 151.652344 " fill-opacity="1" fill-rule="nonzero"/><path fill="#ff751f" d="M 68.214844 151.652344 L 84.230469 151.652344 L 84.230469 167.679688 L 68.214844 167.679688 Z M 68.214844 151.652344 " fill-opacity="1" fill-rule="nonzero"/><path fill="#ff751f" d="M 49.671875 151.652344 L 65.683594 151.652344 L 65.683594 167.679688 L 49.671875 167.679688 Z M 49.671875 151.652344 " fill-opacity="1" fill-rule="nonzero"/><path fill="#ff751f" d="M 309.316406 133.101562 L 325.328125 133.101562 L 325.328125 149.128906 L 309.316406 149.128906 Z M 309.316406 133.101562 " fill-opacity="1" fill-rule="nonzero"/><path fill="#ff751f" d="M 290.765625 133.101562 L 306.777344 133.101562 L 306.777344 149.128906 L 290.765625 149.128906 Z M 290.765625 133.101562 " fill-opacity="1" fill-rule="nonzero"/><path fill="#ff751f" d="M 272.21875 133.101562 L 288.234375 133.101562 L 288.234375 149.128906 L 272.21875 149.128906 Z M 272.21875 133.101562 " fill-opacity="1" fill-rule="nonzero"/><path fill="#ff751f" d="M 198.039062 133.101562 L 214.050781 133.101562 L 214.050781 149.128906 L 198.039062 149.128906 Z M 198.039062 133.101562 " fill-opacity="1" fill-rule="nonzero"/><path fill="#ff751f" d="M 179.492188 133.101562 L 195.507812 133.101562 L 195.507812 149.128906 L 179.492188 149.128906 Z M 179.492188 133.101562 " fill-opacity="1" fill-rule="nonzero"/><path fill="#ff751f" d="M 160.949219 133.101562 L 176.960938 133.101562 L 176.960938 149.128906 L 160.949219 149.128906 Z M 160.949219 133.101562 " fill-opacity="1" fill-rule="nonzero"/><path fill="#ff751f" d="M 86.761719 133.101562 L 102.773438 133.101562 L 102.773438 149.128906 L 86.761719 149.128906 Z M 86.761719 133.101562 " fill-opacity="1" fill-rule="nonzero"/><path fill="#ff751f" d="M 68.214844 133.101562 L 84.230469 133.101562 L 84.230469 149.128906 L 68.214844 149.128906 Z M 68.214844 133.101562 " fill-opacity="1" fill-rule="nonzero"/><path fill="#ff751f" d="M 49.671875 133.101562 L 65.683594 133.101562 L 65.683594 149.128906 L 49.671875 149.128906 Z M 49.671875 133.101562 " fill-opacity="1" fill-rule="nonzero"/><path fill="#ff751f" d="M 309.316406 114.546875 L 325.328125 114.546875 L 325.328125 130.570312 L 309.316406 130.570312 Z M 309.316406 114.546875 " fill-opacity="1" fill-rule="nonzero"/><path fill="#ff751f" d="M 290.765625 114.546875 L 306.777344 114.546875 L 306.777344 130.570312 L 290.765625 130.570312 Z M 290.765625 114.546875 " fill-opacity="1" fill-rule="nonzero"/><path fill="#ff751f" d="M 198.039062 114.546875 L 214.050781 114.546875 L 214.050781 130.570312 L 198.039062 130.570312 Z M 198.039062 114.546875 " fill-opacity="1" fill-rule="nonzero"/><path fill="#ff751f" d="M 179.492188 114.546875 L 195.507812 114.546875 L 195.507812 130.570312 L 179.492188 130.570312 Z M 179.492188 114.546875 " fill-opacity="1" fill-rule="nonzero"/><path fill="#ff751f" d="M 160.949219 114.546875 L 176.960938 114.546875 L 176.960938 130.570312 L 160.949219 130.570312 Z M 160.949219 114.546875 " fill-opacity="1" fill-rule="nonzero"/><path fill="#ff751f" d="M 68.214844 114.546875 L 84.230469 114.546875 L 84.230469 130.570312 L 68.214844 130.570312 Z M 68.214844 114.546875 " fill-opacity="1" fill-rule="nonzero"/><path fill="#ff751f" d="M 49.671875 114.546875 L 65.683594 114.546875 L 65.683594 130.570312 L 49.671875 130.570312 Z M 49.671875 114.546875 " fill-opacity="1" fill-rule="nonzero"/><g clip-path="url(#3ec51dd03b)"><path fill="#ff751f" d="M 327.859375 95.992188 L 343.875 95.992188 L 343.875 112.019531 L 327.859375 112.019531 Z M 327.859375 95.992188 " fill-opacity="1" fill-rule="nonzero"/></g><g clip-path="url(#55f7a51888)"><path fill="#ff751f" d="M 309.316406 95.992188 L 325.328125 95.992188 L 325.328125 112.019531 L 309.316406 112.019531 Z M 309.316406 95.992188 " fill-opacity="1" fill-rule="nonzero"/></g><g clip-path="url(#6e8b3df017)"><path fill="#ff751f" d="M 198.039062 95.992188 L 214.050781 95.992188 L 214.050781 112.019531 L 198.039062 112.019531 Z M 198.039062 95.992188 " fill-opacity="1" fill-rule="nonzero"/></g><g clip-path="url(#1c9bb2dbd4)"><path fill="#ff751f" d="M 179.492188 95.992188 L 195.507812 95.992188 L 195.507812 112.019531 L 179.492188 112.019531 Z M 179.492188 95.992188 " fill-opacity="1" fill-rule="nonzero"/></g><g clip-path="url(#23c7d5f1f1)"><path fill="#ff751f" d="M 160.949219 95.992188 L 176.960938 95.992188 L 176.960938 112.019531 L 160.949219 112.019531 Z M 160.949219 95.992188 " fill-opacity="1" fill-rule="nonzero"/></g><g clip-path="url(#01e73181c7)"><path fill="#ff751f" d="M 68.214844 95.992188 L 84.230469 95.992188 L 84.230469 112.019531 L 68.214844 112.019531 Z M 68.214844 95.992188 " fill-opacity="1" fill-rule="nonzero"/></g><g clip-path="url(#e17ae75d24)"><path fill="#ff751f" d="M 49.671875 95.992188 L 65.683594 95.992188 L 65.683594 112.019531 L 49.671875 112.019531 Z M 49.671875 95.992188 " fill-opacity="1" fill-rule="nonzero"/></g><g clip-path="url(#a1a0aeecbf)"><path fill="#f6f4f0" d="M 198.039062 262.980469 L 214.050781 262.980469 L 214.050781 279.003906 L 198.039062 279.003906 Z M 198.039062 262.980469 " fill-opacity="1" fill-rule="nonzero"/></g><g clip-path="url(#d2353f8f5b)"><path fill="#f6f4f0" d="M 86.761719 262.980469 L 102.773438 262.980469 L 102.773438 279.003906 L 86.761719 279.003906 Z M 86.761719 262.980469 " fill-opacity="1" fill-rule="nonzero"/></g><path fill="#f6f4f0" d="M 198.039062 244.429688 L 214.050781 244.429688 L 214.050781 260.453125 L 198.039062 260.453125 Z M 198.039062 244.429688 " fill-opacity="1" fill-rule="nonzero"/><path fill="#f6f4f0" d="M 86.761719 244.429688 L 102.773438 244.429688 L 102.773438 260.453125 L 86.761719 260.453125 Z M 86.761719 244.429688 " fill-opacity="1" fill-rule="nonzero"/><path fill="#f6f4f0" d="M 68.214844 244.429688 L 84.230469 244.429688 L 84.230469 260.453125 L 68.214844 260.453125 Z M 68.214844 244.429688 " fill-opacity="1" fill-rule="nonzero"/><path fill="#f6f4f0" d="M 198.039062 225.871094 L 214.050781 225.871094 L 214.050781 241.898438 L 198.039062 241.898438 Z M 198.039062 225.871094 " fill-opacity="1" fill-rule="nonzero"/><path fill="#f6f4f0" d="M 68.214844 225.871094 L 84.230469 225.871094 L 84.230469 241.898438 L 68.214844 241.898438 Z M 68.214844 225.871094 " fill-opacity="1" fill-rule="nonzero"/><path fill="#f6f4f0" d="M 198.039062 207.320312 L 214.050781 207.320312 L 214.050781 223.347656 L 198.039062 223.347656 Z M 198.039062 207.320312 " fill-opacity="1" fill-rule="nonzero"/><path fill="#f6f4f0" d="M 49.671875 207.320312 L 65.683594 207.320312 L 65.683594 223.347656 L 49.671875 223.347656 Z M 49.671875 207.320312 " fill-opacity="1" fill-rule="nonzero"/><path fill="#f6f4f0" d="M 49.671875 188.761719 L 65.683594 188.761719 L 65.683594 204.789062 L 49.671875 204.789062 Z M 49.671875 188.761719 " fill-opacity="1" fill-rule="nonzero"/><path fill="#f6f4f0" d="M 49.671875 170.210938 L 65.683594 170.210938 L 65.683594 186.238281 L 49.671875 186.238281 Z M 49.671875 170.210938 " fill-opacity="1" fill-rule="nonzero"/><path fill="#f6f4f0" d="M 142.402344 151.652344 L 158.417969 151.652344 L 158.417969 167.679688 L 142.402344 167.679688 Z M 142.402344 151.652344 " fill-opacity="1" fill-rule="nonzero"/><path fill="#f6f4f0" d="M 31.125 151.652344 L 47.140625 151.652344 L 47.140625 167.679688 L 31.125 167.679688 Z M 31.125 151.652344 " fill-opacity="1" fill-rule="nonzero"/><path fill="#f6f4f0" d="M 253.675781 133.101562 L 269.6875 133.101562 L 269.6875 149.128906 L 253.675781 149.128906 Z M 253.675781 133.101562 " fill-opacity="1" fill-rule="nonzero"/><path fill="#f6f4f0" d="M 142.402344 133.101562 L 158.417969 133.101562 L 158.417969 149.128906 L 142.402344 149.128906 Z M 142.402344 133.101562 " fill-opacity="1" fill-rule="nonzero"/><path fill="#f6f4f0" d="M 31.125 133.101562 L 47.140625 133.101562 L 47.140625 149.128906 L 31.125 149.128906 Z M 31.125 133.101562 " fill-opacity="1" fill-rule="nonzero"/><path fill="#f6f4f0" d="M 272.21875 114.546875 L 288.234375 114.546875 L 288.234375 130.570312 L 272.21875 130.570312 Z M 272.21875 114.546875 " fill-opacity="1" fill-rule="nonzero"/><path fill="#f6f4f0" d="M 142.402344 114.546875 L 158.417969 114.546875 L 158.417969 130.570312 L 142.402344 130.570312 Z M 142.402344 114.546875 " fill-opacity="1" fill-rule="nonzero"/><path fill="#f6f4f0" d="M 31.125 114.546875 L 47.140625 114.546875 L 47.140625 130.570312 L 31.125 130.570312 Z M 31.125 114.546875 " fill-opacity="1" fill-rule="nonzero"/><g clip-path="url(#5db046c4c3)"><path fill="#f6f4f0" d="M 290.765625 95.992188 L 306.777344 95.992188 L 306.777344 112.019531 L 290.765625 112.019531 Z M 290.765625 95.992188 " fill-opacity="1" fill-rule="nonzero"/></g><g clip-path="url(#01fa4e7009)"><path fill="#f6f4f0" d="M 142.402344 95.992188 L 158.417969 95.992188 L 158.417969 112.019531 L 142.402344 112.019531 Z M 142.402344 95.992188 " fill-opacity="1" fill-rule="nonzero"/></g><g clip-path="url(#10e91f55b1)"><path fill="#f6f4f0" d="M 31.125 95.992188 L 47.140625 95.992188 L 47.140625 112.019531 L 31.125 112.019531 Z M 31.125 95.992188 " fill-opacity="1" fill-rule="nonzero"/></g><g clip-path="url(#82be407153)"><path fill="#f6f4f0" d="M 12.582031 95.992188 L 28.59375 95.992188 L 28.59375 112.019531 L 12.582031 112.019531 Z M 12.582031 95.992188 " fill-opacity="1" fill-rule="nonzero"/></g></svg>